<svg id="svg" version="1.1" xmlns="http://www.w3.org/2000/svg" xmlns:xlink="http://www.w3.org/1999/xlink" width="400" height="400" viewBox="0, 0, 400,400"><g id="svgg"><path id="path0" d="M191.602 63.141 C 190.742 63.237,188.633 63.588,186.914 63.922 C 185.195 64.255,183.438 64.590,183.008 64.666 C 159.084 68.871,133.764 88.343,123.591 110.360 C 110.007 139.761,123.089 170.312,149.262 170.313 C 172.608 170.313,184.303 143.830,168.171 127.492 C 157.601 116.786,137.754 118.205,129.876 130.229 C 127.881 133.274,130.384 125.938,133.412 119.863 C 135.345 115.986,136.161 114.667,139.778 109.570 C 157.850 84.102,196.153 79.444,218.228 100.030 C 243.163 123.283,241.639 161.295,214.379 196.094 C 213.116 197.705,211.694 199.530,211.218 200.149 C 209.084 202.923,198.865 214.568,192.139 221.889 C 170.899 245.008,163.281 260.614,163.281 281.007 L 163.281 285.938 165.430 285.938 C 167.530 285.938,167.578 285.912,167.578 284.828 C 167.578 281.891,170.940 272.178,173.548 267.578 C 181.961 252.741,190.991 244.009,217.383 225.186 C 219.746 223.501,223.350 220.878,225.391 219.357 C 227.432 217.837,229.541 216.310,230.078 215.965 C 231.359 215.142,244.126 204.640,249.062 200.349 C 265.041 186.460,276.285 169.321,279.673 153.689 C 287.520 117.483,270.704 84.936,236.328 69.800 C 232.512 68.120,225.688 65.783,223.649 65.458 C 222.996 65.354,221.318 65.012,219.922 64.698 C 218.525 64.384,216.240 64.004,214.844 63.854 C 213.447 63.704,211.953 63.502,211.523 63.405 C 210.419 63.157,193.487 62.932,191.602 63.141 M191.746 292.005 C 168.966 297.533,167.504 331.022,189.716 338.517 C 207.583 344.546,225.560 329.038,221.927 310.729 C 219.202 297.000,205.695 288.620,191.746 292.005 " stroke="none" fill="#040404" fill-rule="evenodd"></path><path id="path1" d="M0.000 200.000 L 0.000 400.000 200.000 400.000 L 400.000 400.000 400.000 200.000 L 400.000 0.000 200.000 0.000 L 0.000 0.000 0.000 200.000 M211.523 63.405 C 211.953 63.502,213.447 63.704,214.844 63.854 C 216.240 64.004,218.525 64.384,219.922 64.698 C 221.318 65.012,222.996 65.354,223.649 65.458 C 229.021 66.313,241.379 71.639,248.051 75.974 C 285.219 100.125,292.826 148.467,264.964 183.461 C 260.308 189.308,253.745 196.279,249.062 200.349 C 244.126 204.640,231.359 215.142,230.078 215.965 C 229.541 216.310,227.432 217.837,225.391 219.357 C 223.350 220.878,219.746 223.501,217.383 225.186 C 190.991 244.009,181.961 252.741,173.548 267.578 C 170.940 272.178,167.578 281.891,167.578 284.828 C 167.578 285.912,167.530 285.938,165.430 285.938 L 163.281 285.938 163.281 281.007 C 163.281 260.614,170.899 245.008,192.139 221.889 C 198.865 214.568,209.084 202.923,211.218 200.149 C 211.694 199.530,213.116 197.705,214.379 196.094 C 241.639 161.295,243.163 123.283,218.228 100.030 C 196.153 79.444,157.850 84.102,139.778 109.570 C 136.161 114.667,135.345 115.986,133.412 119.863 C 130.384 125.938,127.881 133.274,129.876 130.229 C 137.754 118.205,157.601 116.786,168.171 127.492 C 184.303 143.830,172.608 170.313,149.262 170.313 C 123.089 170.312,110.007 139.761,123.591 110.360 C 133.764 88.343,159.084 68.871,183.008 64.666 C 183.438 64.590,185.195 64.255,186.914 63.922 C 188.633 63.588,190.742 63.237,191.602 63.141 C 193.487 62.932,210.419 63.157,211.523 63.405 M204.883 292.133 C 231.928 300.455,225.936 339.798,197.656 339.585 C 181.569 339.464,170.645 325.431,174.366 309.668 C 177.475 296.499,191.981 288.164,204.883 292.133 " stroke="none" fill="#fbfbfb" fill-rule="evenodd"></path></g></svg>